# xmcd
#
# Track frame offsets:
#	150
#	16550
#	33687
#	52575
#	70070
#	85425
#	106835
#	122010
#	137925
#	155575
#
# Disc length: 2337 seconds
#
# Revision: 4
# Processed by: cddbd v1.5PL3 Copyright (c) Steve Scherf et al.
# Submitted via: CDex 1.50Beta5
#
DISCID=79091f0a
DTITLE=松田聖子 - SILHOUETTE
DYEAR=1900
DGENRE=Pop
TTITLE0=Summer Beach
TTITLE1=白い貝のブローチ
TTITLE2=Sailing
TTITLE3=ナイーブ
TTITLE4=チェリーブラッサム
TTITLE5=あ・な・た・の手紙
TTITLE6=Je t’aime
TTITLE7=夏の扉
TTITLE8=花びら
TTITLE9=愛の神話
EXTD=
EXTT0=
EXTT1=
EXTT2=
EXTT3=
EXTT4=
EXTT5=
EXTT6=
EXTT7=
EXTT8=
EXTT9=
PLAYORDER=
